<svg version="1.1" id="Layer_1" xmlns="http://www.w3.org/2000/svg" xmlns:xlink="http://www.w3.org/1999/xlink" x="0px" y="0px"
	 width="100%" viewBox="0 0 200 200" enable-background="new 0 0 200 200" xml:space="preserve">
<path fill="#010101" opacity="1.000000" stroke="none" 
	d="
M1.000000,81.000000 
	C1.000000,54.000008 1.000000,27.500013 1.000000,1.000014 
	C67.666649,1.000010 134.333298,1.000010 200.999954,1.000005 
	C200.999969,67.666634 200.999969,134.333267 200.999985,200.999908 
	C134.333389,200.999939 67.666779,200.999939 1.000081,200.999969 
	C1.000000,161.166672 1.000000,121.333336 1.000000,81.000000 
M136.110336,176.980942 
	C136.453247,176.957230 136.746674,176.838303 137.321518,177.182053 
	C137.469955,177.339279 137.618393,177.496490 138.168793,178.237900 
	C140.444687,178.174484 142.720566,178.111069 145.722443,178.027679 
	C146.442947,178.108246 147.163437,178.188812 148.017410,178.742386 
	C148.684464,178.760025 149.351517,178.777649 150.807388,178.873871 
	C155.984055,179.354370 160.022766,181.317841 161.739410,186.728104 
	C162.172134,188.091888 163.073380,189.926331 164.196548,190.331009 
	C167.104202,191.378677 170.493301,192.780106 173.252609,192.143524 
	C177.145248,191.245499 174.493774,187.857498 174.210480,185.459915 
	C173.102707,176.084625 171.896698,166.718384 170.976196,157.324371 
	C170.235306,149.763519 169.853119,142.167526 169.300125,134.424057 
	C175.380890,132.606445 175.845352,132.027145 176.650604,124.755440 
	C177.595688,116.221001 174.942566,108.770447 169.676300,101.484497 
	C169.575180,101.316673 169.474045,101.148842 169.778290,100.346146 
	C170.570450,99.840576 171.313919,99.226509 172.162140,98.845833 
	C183.565018,93.728218 188.996994,84.925140 188.361420,72.464119 
	C188.193863,69.178619 187.906219,65.852409 187.192535,62.652191 
	C186.020035,57.394508 184.454422,52.224491 183.782974,46.770893 
	C186.498398,45.791988 189.601944,45.348850 191.847885,43.721863 
	C196.424301,40.406647 197.413437,34.353264 194.964783,28.933424 
	C192.490662,23.457197 185.629471,19.960129 179.202011,20.899307 
	C173.443756,21.740702 170.730148,24.775517 169.839569,31.283091 
	C169.732986,32.061966 169.363098,32.804810 168.649536,32.990685 
	C165.183762,31.051161 161.879364,28.706266 158.221237,27.249908 
	C148.188416,23.255682 137.668716,24.230757 127.140579,24.105011 
	C124.898277,12.908121 118.712868,8.375983 109.188103,10.950979 
	C104.532005,12.209743 100.024612,18.223223 100.210518,22.928305 
	C100.436714,28.653082 104.091698,33.231037 108.627251,34.960026 
	C105.888260,39.325951 103.149261,43.691875 99.819481,48.747154 
	C82.955132,49.734737 66.325294,48.175503 50.003456,43.959599 
	C39.193901,64.339203 23.448547,80.500969 6.703896,97.746780 
	C20.003481,120.868423 33.499535,144.309692 46.971149,167.765015 
	C51.298134,175.298706 57.430984,180.695648 65.813568,183.100418 
	C83.358597,188.133698 100.933678,193.072342 118.590805,197.688889 
	C120.317299,198.140320 123.537056,196.660889 124.628960,195.084152 
	C128.679764,189.234634 132.129974,182.969223 136.110336,176.980942 
z"/>
<path fill="#B89980" opacity="1.000000" stroke="none" 
	d="
M147.883942,178.269379 
	C147.163437,178.188812 146.442947,178.108246 145.004013,177.855469 
	C142.112656,177.673416 139.939743,177.663559 137.766815,177.653687 
	C137.618393,177.496490 137.469955,177.339279 137.445618,176.501129 
	C137.714401,175.184158 137.859100,174.548126 138.059387,173.566650 
	C138.755264,171.480896 139.395554,169.740585 140.313477,167.875488 
	C141.007019,167.090027 141.422913,166.429337 141.874054,165.575134 
	C141.909271,165.381592 142.009384,165.001114 142.179352,164.776306 
	C142.547852,164.028717 142.746368,163.505936 142.959625,162.980560 
	C142.974365,162.977951 142.952240,162.956879 143.032745,162.856995 
	C143.233322,162.514511 143.220184,162.275650 143.201981,161.701355 
	C144.498459,157.614090 145.666779,153.866028 146.986267,149.935135 
	C147.110199,149.178802 147.082993,148.605286 147.182953,147.674988 
	C147.883255,144.871933 148.456390,142.425659 149.197388,139.723328 
	C149.271561,138.330826 149.177856,137.194351 149.061218,135.696899 
	C148.977722,134.615097 148.917160,133.894287 149.231628,133.207489 
	C152.613770,133.842789 155.620911,134.444061 158.628036,135.045349 
	C158.706467,134.391525 158.784882,133.737717 158.863312,133.083908 
	C155.489059,133.083908 152.114822,133.083908 148.329590,133.100357 
	C146.272446,133.038757 144.626312,132.960709 142.870575,132.632004 
	C141.849411,132.237335 140.937851,132.093323 139.787750,131.971649 
	C139.549194,131.994003 139.072662,132.044067 139.018982,131.865692 
	C138.596710,131.493607 138.228134,131.299896 137.622772,130.918839 
	C137.294373,129.489532 137.202759,128.247574 137.339935,126.903404 
	C137.424606,125.882484 137.280457,124.963776 137.145844,123.753967 
	C137.403046,122.950745 137.650726,122.438629 138.118317,121.919510 
	C139.221909,120.901596 140.105621,119.890701 141.180756,118.687866 
	C141.863876,118.281494 142.355545,118.067055 143.107208,118.045181 
	C144.932159,118.113190 146.497101,117.988647 148.062057,117.864105 
	C147.643814,117.447708 147.225571,117.031311 146.703552,116.297516 
	C145.702805,113.073494 144.805801,110.166885 143.789093,107.027969 
	C143.452911,106.525215 143.236435,106.254768 142.832092,105.673737 
	C141.743027,102.789772 140.841843,100.216393 140.319336,97.734634 
	C149.018936,97.299988 152.492752,89.125458 151.192184,83.252060 
	C148.986725,73.292122 135.832840,66.707489 125.754410,67.837479 
	C124.676178,66.379234 123.828758,65.145142 123.037201,63.511856 
	C123.312782,60.676075 123.913200,58.196671 123.645332,55.814922 
	C123.376511,53.424683 123.400078,49.285206 118.919685,52.797787 
	C118.771965,52.913597 117.678596,51.823193 116.842133,50.996128 
	C115.502960,48.985050 114.347679,47.272896 113.474655,45.979057 
	C108.682991,46.741486 104.546631,47.399643 100.410263,48.057800 
	C103.149261,43.691875 105.888260,39.325951 109.129562,34.551613 
	C110.750381,33.111351 111.868874,32.079502 113.335785,30.928432 
	C116.832382,29.198107 119.980576,27.587000 123.405945,26.019585 
	C124.862183,25.671618 126.041260,25.279959 127.220329,24.888300 
	C137.668716,24.230757 148.188416,23.255682 158.221237,27.249908 
	C161.879364,28.706266 165.183762,31.051161 169.081299,33.514198 
	C171.139069,35.013512 172.765106,35.989311 174.593445,37.197289 
	C176.535507,38.980137 178.275284,40.530815 180.060425,42.363258 
	C181.088730,44.102516 182.071640,45.560013 183.054565,47.017509 
	C184.454422,52.224491 186.020035,57.394508 187.192535,62.652191 
	C187.906219,65.852409 188.193863,69.178619 188.361420,72.464119 
	C188.996994,84.925140 183.565018,93.728218 172.162140,98.845833 
	C171.313919,99.226509 170.570450,99.840576 169.234756,100.678223 
	C166.860199,101.434509 165.029160,101.858734 163.198135,102.282951 
	C163.296982,102.701599 163.395828,103.120255 163.494675,103.538910 
	C165.615295,103.040611 167.735916,102.542313 169.856537,102.044022 
	C174.942566,108.770447 177.595688,116.221001 176.650604,124.755440 
	C175.845352,132.027145 175.380890,132.606445 169.300125,134.424057 
	C169.853119,142.167526 170.235306,149.763519 170.976196,157.324371 
	C171.896698,166.718384 173.102707,176.084625 174.210480,185.459915 
	C174.493774,187.857498 177.145248,191.245499 173.252609,192.143524 
	C170.493301,192.780106 167.104202,191.378677 164.196548,190.331009 
	C163.073380,189.926331 162.172134,188.091888 161.739410,186.728104 
	C160.022766,181.317841 155.984055,179.354370 150.209900,178.618103 
	C149.036270,178.331360 148.460098,178.300369 147.883942,178.269379 
M158.036819,85.615547 
	C159.239761,93.850517 169.048615,98.116371 175.832489,93.354858 
	C180.320923,90.204483 181.178848,83.916016 177.610977,80.318687 
	C171.726135,74.385269 160.884628,76.889473 158.036819,85.615547 
M156.841492,60.410370 
	C156.558395,61.689346 155.918518,63.012428 156.069992,64.237686 
	C156.345169,66.463600 157.236084,70.553596 157.617706,70.524773 
	C161.264877,70.249344 162.178589,67.344177 162.215958,64.179985 
	C162.233032,62.733459 162.143463,61.086788 161.476471,59.875462 
	C160.340363,57.812107 158.679840,56.549583 156.841492,60.410370 
M150.310944,105.991150 
	C151.150940,105.794174 151.990936,105.597206 152.830933,105.400230 
	C152.770416,105.050308 152.709885,104.700386 152.649368,104.350456 
	C150.757858,104.633591 148.866364,104.916718 146.974854,105.199852 
	C146.976395,105.408226 146.977921,105.616608 146.979462,105.824982 
	C147.877197,105.883926 148.774918,105.942871 150.310944,105.991150 
M158.108444,119.753342 
	C158.530182,120.047318 158.938736,120.366760 159.391357,120.601067 
	C159.444321,120.628479 159.740341,120.186317 159.923691,119.961845 
	C159.415237,119.786720 158.906784,119.611588 158.108444,119.753342 
M151.238663,119.096214 
	C151.635666,119.264069 152.026505,119.454994 152.438904,119.565460 
	C152.481918,119.576981 152.652573,119.112000 152.764008,118.868095 
	C152.249680,118.818604 151.735352,118.769112 151.238663,119.096214 
M163.849640,135.218002 
	C164.288452,135.452728 164.727264,135.687439 165.166077,135.922165 
	C165.239304,135.744156 165.312531,135.566162 165.385757,135.388168 
	C164.983353,135.294922 164.580963,135.201660 163.849640,135.218002 
M159.325165,104.528595 
	C159.598541,104.442383 159.871933,104.356171 160.145309,104.269966 
	C159.988419,104.054626 159.831528,103.839279 159.674637,103.623932 
	C159.493408,103.840881 159.312164,104.057831 159.325165,104.528595 
M164.757507,117.857185 
	C164.903900,117.963440 165.050293,118.069702 165.196686,118.175957 
	C165.104568,118.020882 165.012436,117.865807 164.757507,117.857185 
M162.758133,120.859329 
	C162.903488,120.964966 163.048828,121.070602 163.194183,121.176239 
	C163.102753,121.022217 163.011307,120.868187 162.758133,120.859329 
M169.506653,122.930481 
	C169.506653,122.930481 169.563828,122.981407 169.506653,122.930481 
M166.077698,122.506256 
	C166.077698,122.506256 166.022171,122.569519 166.077698,122.506256 
M155.553680,119.034348 
	C155.553680,119.034348 155.479172,119.061737 155.553680,119.034348 
z"/>
<path fill="#B3B3B3" opacity="1.000000" stroke="none" 
	d="
M149.029526,139.979370 
	C148.456390,142.425659 147.883255,144.871933 147.083954,147.877838 
	C146.850235,148.997635 146.842667,149.557785 146.835114,150.117950 
	C145.666779,153.866028 144.498459,157.614090 143.163635,161.929138 
	C142.997162,162.496124 142.952240,162.956879 142.952240,162.956879 
	C142.952240,162.956879 142.974365,162.977951 142.755524,163.181488 
	C142.360916,163.923737 142.185165,164.462433 142.009399,165.001114 
	C142.009384,165.001114 141.909271,165.381592 141.638290,165.750580 
	C140.923477,166.746460 140.479645,167.373367 140.035828,168.000259 
	C139.395554,169.740585 138.755264,171.480896 137.699921,173.601257 
	C136.791824,174.940872 136.298798,175.900452 135.805786,176.860031 
	C132.129974,182.969223 128.679764,189.234634 124.628960,195.084152 
	C123.537056,196.660889 120.317299,198.140320 118.590805,197.688889 
	C100.933678,193.072342 83.358597,188.133698 65.813568,183.100418 
	C57.430984,180.695648 51.298134,175.298706 46.971149,167.765015 
	C33.499535,144.309692 20.003481,120.868423 6.703896,97.746780 
	C23.448547,80.500969 39.193901,64.339203 50.003456,43.959599 
	C66.325294,48.175503 82.955132,49.734737 100.114868,48.402477 
	C104.546631,47.399643 108.682991,46.741486 113.474655,45.979057 
	C114.347679,47.272896 115.502960,48.985050 116.997383,51.207062 
	C119.218124,55.781631 121.099731,59.846340 122.981331,63.911053 
	C123.828758,65.145142 124.676178,66.379234 125.819176,68.163841 
	C127.076714,70.390129 128.038681,72.065887 128.868637,74.118088 
	C129.837769,76.132141 130.938904,77.769745 132.092896,79.753906 
	C134.744064,85.947975 137.342361,91.795494 139.940659,97.643013 
	C140.841843,100.216393 141.743027,102.789772 142.942627,105.910385 
	C143.463638,106.725174 143.686218,106.992722 143.908813,107.260269 
	C144.805801,110.166885 145.702805,113.073494 146.356049,116.344971 
	C145.023941,117.090767 143.935577,117.471695 142.847214,117.852631 
	C142.355545,118.067055 141.863876,118.281494 140.794617,118.714600 
	C139.187271,118.919678 138.157532,118.906097 137.042633,118.529945 
	C134.587387,112.444778 132.217316,106.722168 129.846771,100.641586 
	C124.161209,88.297813 118.438271,76.329727 112.815834,64.314613 
	C111.282600,61.038116 109.694626,58.027111 105.458076,58.011803 
	C99.102379,57.988834 92.719536,57.599148 86.397369,58.051769 
	C77.254410,58.706337 68.424126,57.208172 59.541256,55.538841 
	C58.545597,55.351730 57.262051,56.696529 55.852936,57.140388 
	C55.029785,56.184937 54.465706,55.420021 53.712257,54.398319 
	C51.251667,57.932961 49.177689,61.295025 46.730118,64.358620 
	C38.350685,74.847054 30.085705,85.447533 21.208160,95.503006 
	C18.967384,98.041100 18.499704,99.443199 19.969818,102.131302 
	C26.901796,114.806412 33.696171,127.557327 40.721226,140.180145 
	C41.468563,141.522964 43.400700,142.206406 44.668701,143.533813 
	C46.417667,148.031418 47.663433,152.643906 50.298527,156.237656 
	C53.711784,160.892715 54.879433,167.443436 61.059071,169.905838 
	C68.119385,172.719208 75.056580,175.932907 82.289833,178.198074 
	C91.632141,181.123718 101.192535,183.373138 110.712402,185.694824 
	C112.639755,186.164871 114.805008,185.659378 117.181648,185.541351 
	C129.604706,170.157166 136.076721,152.616852 138.250443,133.114563 
	C138.651443,132.628876 138.862061,132.336472 139.072662,132.044067 
	C139.072662,132.044067 139.549194,131.994003 140.066040,132.121582 
	C141.381989,132.460342 142.181091,132.671509 142.980179,132.882675 
	C144.626312,132.960709 146.272446,133.038757 148.358124,133.123352 
	C148.797668,133.129913 148.856613,133.173462 148.856598,133.173462 
	C148.917160,133.894287 148.977722,134.615097 149.032715,136.087158 
	C149.027939,137.885376 149.028732,138.932373 149.029526,139.979370 
z"/>
<path fill="#AD9078" opacity="1.000000" stroke="none" 
	d="
M174.391129,36.965115 
	C172.765106,35.989311 171.139069,35.013512 169.314148,33.801033 
	C169.363098,32.804810 169.732986,32.061966 169.839569,31.283091 
	C170.730148,24.775517 173.443756,21.740702 179.202011,20.899307 
	C185.629471,19.960129 192.490662,23.457197 194.964783,28.933424 
	C197.413437,34.353264 196.424301,40.406647 191.847885,43.721863 
	C189.601944,45.348850 186.498398,45.791988 183.418762,46.894203 
	C182.071640,45.560013 181.088730,44.102516 180.347473,42.375916 
	C181.125168,42.292343 181.661194,42.477879 182.189514,42.843292 
	C182.318680,43.202084 182.455536,43.381001 182.592407,43.559921 
	C182.720703,43.341492 182.848999,43.123062 183.256653,42.942207 
	C189.085953,41.046902 191.629517,37.339100 190.456619,32.891445 
	C189.287933,28.459736 184.606186,25.501625 179.805252,26.161486 
	C175.168137,26.798832 173.484024,30.159403 174.391129,36.965115 
z"/>
<path fill="#AA8E76" opacity="1.000000" stroke="none" 
	d="
M127.180450,24.496655 
	C126.041260,25.279959 124.862183,25.671618 123.386642,25.644453 
	C124.389580,21.479788 122.273369,19.296562 119.801315,16.858337 
	C116.830940,13.928611 113.252525,14.106247 110.874001,16.035303 
	C108.339134,18.091156 105.682487,21.845505 105.784386,24.763849 
	C105.878983,27.473301 107.932434,32.014923 112.987373,31.047655 
	C111.868874,32.079502 110.750381,33.111351 109.486809,34.254288 
	C104.091698,33.231037 100.436714,28.653082 100.210518,22.928305 
	C100.024612,18.223223 104.532005,12.209743 109.188103,10.950979 
	C118.712868,8.375983 124.898277,12.908121 127.180450,24.496655 
z"/>
<path fill="#3E342B" opacity="1.000000" stroke="none" 
	d="
M137.967804,177.945801 
	C139.939743,177.663559 142.112656,177.673416 144.641022,177.865448 
	C142.720566,178.111069 140.444687,178.174484 137.967804,177.945801 
z"/>
<path fill="#B6987E" opacity="1.000000" stroke="none" 
	d="
M169.766418,101.764259 
	C167.735916,102.542313 165.615295,103.040611 163.494675,103.538910 
	C163.395828,103.120255 163.296982,102.701599 163.198135,102.282951 
	C165.029160,101.858734 166.860199,101.434509 169.032074,100.995651 
	C169.474045,101.148842 169.575180,101.316673 169.766418,101.764259 
z"/>
<path fill="#3E342B" opacity="1.000000" stroke="none" 
	d="
M135.958069,176.920486 
	C136.298798,175.900452 136.791824,174.940872 137.644318,173.946686 
	C137.859100,174.548126 137.714401,175.184158 137.280151,176.222168 
	C136.746674,176.838303 136.453247,176.957230 135.958069,176.920486 
z"/>
<path fill="#3E342B" opacity="1.000000" stroke="none" 
	d="
M147.950684,178.505890 
	C148.460098,178.300369 149.036270,178.331360 149.815491,178.578796 
	C149.351517,178.777649 148.684464,178.760025 147.950684,178.505890 
z"/>
<path fill="#F56E6D" opacity="1.000000" stroke="none" 
	d="
M138.060059,133.307846 
	C136.076721,152.616852 129.604706,170.157166 116.974472,185.319244 
	C114.623825,181.809891 112.658112,178.529343 111.005684,175.097946 
	C105.906082,164.508255 100.806168,153.915482 95.942307,143.216644 
	C92.775772,136.251373 90.020226,129.099258 87.398636,121.879303 
	C92.004654,119.680725 96.316742,117.682533 100.575645,115.576759 
	C110.346626,110.745567 120.091667,105.861923 129.847229,100.999573 
	C132.217316,106.722168 134.587387,112.444778 137.043549,118.848160 
	C137.385880,120.328133 137.642136,121.127327 137.898407,121.926514 
	C137.650726,122.438629 137.403046,122.950745 137.100433,124.121994 
	C137.067398,125.522629 137.089264,126.264122 137.111145,127.005615 
	C137.202759,128.247574 137.294373,129.489532 137.561676,131.151199 
	C137.844925,132.149887 137.952484,132.728867 138.060059,133.307846 
z"/>
<path fill="#E1C3A9" opacity="1.000000" stroke="none" 
	d="
M129.000656,73.741646 
	C128.038681,72.065887 127.076714,70.390129 126.049980,68.388000 
	C135.832840,66.707489 148.986725,73.292122 151.192184,83.252060 
	C152.492752,89.125458 149.018936,97.299988 140.319336,97.734634 
	C137.342361,91.795494 134.744064,85.947975 132.466278,79.650299 
	C134.439377,78.212502 136.091980,77.224861 137.744568,76.237228 
	C136.063934,75.193047 134.482437,73.879417 132.663818,73.210258 
	C131.645767,72.835670 130.234665,73.529327 129.000656,73.741646 
z"/>
<path fill="#EE9D9E" opacity="1.000000" stroke="none" 
	d="
M158.068039,85.220558 
	C160.884628,76.889473 171.726135,74.385269 177.610977,80.318687 
	C181.178848,83.916016 180.320923,90.204483 175.832489,93.354858 
	C169.048615,98.116371 159.239761,93.850517 158.068039,85.220558 
z"/>
<path fill="#DFC1A7" opacity="1.000000" stroke="none" 
	d="
M174.593445,37.197289 
	C173.484024,30.159403 175.168137,26.798832 179.805252,26.161486 
	C184.606186,25.501625 189.287933,28.459736 190.456619,32.891445 
	C191.629517,37.339100 189.085953,41.046902 183.062393,42.879997 
	C182.588760,42.780212 182.197205,42.663414 182.197205,42.663414 
	C181.661194,42.477879 181.125168,42.292343 180.302109,42.094147 
	C178.275284,40.530815 176.535507,38.980137 174.593445,37.197289 
z"/>
<path fill="#E1C3A8" opacity="1.000000" stroke="none" 
	d="
M113.335785,30.928432 
	C107.932434,32.014923 105.878983,27.473301 105.784386,24.763849 
	C105.682487,21.845505 108.339134,18.091156 110.874001,16.035303 
	C113.252525,14.106247 116.830940,13.928611 119.801315,16.858337 
	C122.273369,19.296562 124.389580,21.479788 123.109474,25.600761 
	C119.980576,27.587000 116.832382,29.198107 113.335785,30.928432 
z"/>
<path fill="#080605" opacity="1.000000" stroke="none" 
	d="
M156.908386,59.990120 
	C158.679840,56.549583 160.340363,57.812107 161.476471,59.875462 
	C162.143463,61.086788 162.233032,62.733459 162.215958,64.179985 
	C162.178589,67.344177 161.264877,70.249344 157.617706,70.524773 
	C157.236084,70.553596 156.345169,66.463600 156.069992,64.237686 
	C155.918518,63.012428 156.558395,61.689346 156.908386,59.990120 
z"/>
<path fill="#1C1917" opacity="1.000000" stroke="none" 
	d="
M123.037201,63.511856 
	C121.099731,59.846340 119.218124,55.781631 117.181274,51.505989 
	C117.678596,51.823193 118.771965,52.913597 118.919685,52.797787 
	C123.400078,49.285206 123.376511,53.424683 123.645332,55.814922 
	C123.913200,58.196671 123.312782,60.676075 123.037201,63.511856 
z"/>
<path fill="#B6987E" opacity="1.000000" stroke="none" 
	d="
M148.769135,133.106903 
	C152.114822,133.083908 155.489059,133.083908 158.863312,133.083908 
	C158.784882,133.737717 158.706467,134.391525 158.628036,135.045349 
	C155.620911,134.444061 152.613770,133.842789 149.231628,133.207489 
	C148.856613,133.173462 148.797668,133.129913 148.769135,133.106903 
z"/>
<path fill="#B6987E" opacity="1.000000" stroke="none" 
	d="
M149.991791,105.996475 
	C148.774918,105.942871 147.877197,105.883926 146.979462,105.824982 
	C146.977921,105.616608 146.976395,105.408226 146.974854,105.199852 
	C148.866364,104.916718 150.757858,104.633591 152.649368,104.350456 
	C152.709885,104.700386 152.770416,105.050308 152.830933,105.400230 
	C151.990936,105.597206 151.150940,105.794174 149.991791,105.996475 
z"/>
<path fill="#B6987E" opacity="1.000000" stroke="none" 
	d="
M143.107208,118.045181 
	C143.935577,117.471695 145.023941,117.090767 146.459808,116.662369 
	C147.225571,117.031311 147.643814,117.447708 148.062057,117.864105 
	C146.497101,117.988647 144.932159,118.113190 143.107208,118.045181 
z"/>
<path fill="#B6987E" opacity="1.000000" stroke="none" 
	d="
M158.253387,119.594894 
	C158.906784,119.611588 159.415237,119.786720 159.923691,119.961845 
	C159.740341,120.186317 159.444321,120.628479 159.391357,120.601067 
	C158.938736,120.366760 158.530182,120.047318 158.253387,119.594894 
z"/>
<path fill="#B6987E" opacity="1.000000" stroke="none" 
	d="
M138.118301,121.919510 
	C137.642136,121.127327 137.385880,120.328133 137.128693,119.210724 
	C138.157532,118.906097 139.187271,118.919678 140.603180,118.906532 
	C140.105621,119.890701 139.221909,120.901596 138.118301,121.919510 
z"/>
<path fill="#B6987E" opacity="1.000000" stroke="none" 
	d="
M151.229843,118.907913 
	C151.735352,118.769112 152.249680,118.818604 152.764008,118.868103 
	C152.652573,119.112000 152.481918,119.576981 152.438904,119.565460 
	C152.026505,119.454994 151.635666,119.264069 151.229843,118.907913 
z"/>
<path fill="#B8997F" opacity="1.000000" stroke="none" 
	d="
M164.014099,135.163208 
	C164.580963,135.201660 164.983353,135.294922 165.385757,135.388168 
	C165.312531,135.566162 165.239304,135.744156 165.166077,135.922165 
	C164.727264,135.687439 164.288452,135.452728 164.014099,135.163208 
z"/>
<path fill="#B6987E" opacity="1.000000" stroke="none" 
	d="
M159.228043,104.401688 
	C159.312164,104.057831 159.493408,103.840881 159.674637,103.623932 
	C159.831528,103.839279 159.988419,104.054626 160.145309,104.269966 
	C159.871933,104.356171 159.598541,104.442383 159.228043,104.401688 
z"/>
<path fill="#B6987E" opacity="1.000000" stroke="none" 
	d="
M137.339951,126.903404 
	C137.089264,126.264122 137.067398,125.522629 137.090912,124.413101 
	C137.280457,124.963776 137.424606,125.882484 137.339951,126.903404 
z"/>
<path fill="#B6987E" opacity="1.000000" stroke="none" 
	d="
M142.870575,132.632004 
	C142.181091,132.671509 141.381989,132.460342 140.304596,132.099243 
	C140.937851,132.093323 141.849411,132.237335 142.870575,132.632004 
z"/>
<path fill="#B8997F" opacity="1.000000" stroke="none" 
	d="
M149.197388,139.723328 
	C149.028732,138.932373 149.027939,137.885376 149.055649,136.448135 
	C149.177856,137.194351 149.271561,138.330826 149.197388,139.723328 
z"/>
<path fill="#B6987E" opacity="1.000000" stroke="none" 
	d="
M138.250427,133.114563 
	C137.952484,132.728867 137.844925,132.149887 137.798462,131.338547 
	C138.228134,131.299896 138.596710,131.493607 139.018982,131.865692 
	C138.862061,132.336472 138.651443,132.628876 138.250427,133.114563 
z"/>
<path fill="#B6987E" opacity="1.000000" stroke="none" 
	d="
M164.838913,117.783958 
	C165.012436,117.865807 165.104568,118.020882 165.196686,118.175957 
	C165.050293,118.069702 164.903900,117.963440 164.838913,117.783958 
z"/>
<path fill="#B6987E" opacity="1.000000" stroke="none" 
	d="
M162.839005,120.786743 
	C163.011307,120.868187 163.102753,121.022217 163.194183,121.176239 
	C163.048828,121.070602 162.903488,120.964966 162.839005,120.786743 
z"/>
<path fill="#B8997F" opacity="1.000000" stroke="none" 
	d="
M146.986252,149.935135 
	C146.842667,149.557785 146.850235,148.997635 146.956787,148.234619 
	C147.082993,148.605286 147.110199,149.178802 146.986252,149.935135 
z"/>
<path fill="#B8997F" opacity="1.000000" stroke="none" 
	d="
M140.313477,167.875488 
	C140.479645,167.373367 140.923477,166.746460 141.603058,165.944122 
	C141.422913,166.429337 141.007019,167.090027 140.313477,167.875488 
z"/>
<path fill="#B6987E" opacity="1.000000" stroke="none" 
	d="
M169.535248,122.955948 
	C169.563828,122.981407 169.506653,122.930481 169.535248,122.955948 
z"/>
<path fill="#B6987E" opacity="1.000000" stroke="none" 
	d="
M166.049927,122.537888 
	C166.022171,122.569519 166.077698,122.506256 166.049927,122.537888 
z"/>
<path fill="#B8997F" opacity="1.000000" stroke="none" 
	d="
M142.179367,164.776306 
	C142.185165,164.462433 142.360916,163.923737 142.740784,163.184113 
	C142.746368,163.505936 142.547852,164.028717 142.179367,164.776306 
z"/>
<path fill="#B6987E" opacity="1.000000" stroke="none" 
	d="
M155.516418,119.048042 
	C155.479172,119.061737 155.553680,119.034348 155.516418,119.048042 
z"/>
<path fill="#B6987E" opacity="1.000000" stroke="none" 
	d="
M143.789093,107.027969 
	C143.686218,106.992722 143.463638,106.725174 143.130508,106.220978 
	C143.236435,106.254768 143.452911,106.525215 143.789093,107.027969 
z"/>
<path fill="#B8997F" opacity="1.000000" stroke="none" 
	d="
M143.032745,162.856995 
	C142.952240,162.956879 142.997162,162.496124 143.035492,162.268326 
	C143.220184,162.275650 143.233322,162.514511 143.032745,162.856995 
z"/>
<path fill="#F56E6D" opacity="1.000000" stroke="none" 
	d="
M44.783203,143.195740 
	C43.400700,142.206406 41.468563,141.522964 40.721226,140.180145 
	C33.696171,127.557327 26.901796,114.806412 19.969818,102.131302 
	C18.499704,99.443199 18.967384,98.041100 21.208160,95.503006 
	C30.085705,85.447533 38.350685,74.847054 46.730118,64.358620 
	C49.177689,61.295025 51.251667,57.932961 53.712257,54.398319 
	C54.465706,55.420021 55.029785,56.184937 55.916946,57.458576 
	C60.420593,66.670250 64.677216,75.337669 68.763611,84.084618 
	C74.654259,96.693542 80.421280,109.360245 86.048637,122.321777 
	C72.165215,129.492767 58.474209,136.344254 44.783203,143.195740 
z"/>
<path fill="#FDFDFD" opacity="1.000000" stroke="none" 
	d="
M86.241051,122.002289 
	C80.421280,109.360245 74.654259,96.693542 68.763611,84.084618 
	C64.677216,75.337669 60.420593,66.670250 56.176014,57.649117 
	C57.262051,56.696529 58.545597,55.351730 59.541256,55.538841 
	C68.424126,57.208172 77.254410,58.706337 86.397369,58.051769 
	C92.719536,57.599148 99.102379,57.988834 105.458076,58.011803 
	C109.694626,58.027111 111.282600,61.038116 112.815834,64.314613 
	C118.438271,76.329727 124.161209,88.297813 129.846771,100.641586 
	C120.091667,105.861923 110.346626,110.745567 100.575645,115.576759 
	C96.316742,117.682533 92.004654,119.680725 87.188766,121.872131 
	C86.660828,122.016479 86.241051,122.002289 86.241051,122.002289 
z"/>
<path fill="#FDFDFD" opacity="1.000000" stroke="none" 
	d="
M86.048637,122.321777 
	C86.241051,122.002289 86.660828,122.016479 86.870697,122.023659 
	C90.020226,129.099258 92.775772,136.251373 95.942307,143.216644 
	C100.806168,153.915482 105.906082,164.508255 111.005684,175.097946 
	C112.658112,178.529343 114.623825,181.809891 116.653412,185.381531 
	C114.805008,185.659378 112.639755,186.164871 110.712402,185.694824 
	C101.192535,183.373138 91.632141,181.123718 82.289833,178.198074 
	C75.056580,175.932907 68.119385,172.719208 61.059071,169.905838 
	C54.879433,167.443436 53.711784,160.892715 50.298527,156.237656 
	C47.663433,152.643906 46.417667,148.031418 44.668701,143.533813 
	C58.474209,136.344254 72.165215,129.492767 86.048637,122.321777 
z"/>
<path fill="#452B26" opacity="1.000000" stroke="none" 
	d="
M128.868637,74.118088 
	C130.234665,73.529327 131.645767,72.835670 132.663818,73.210258 
	C134.482437,73.879417 136.063934,75.193047 137.744568,76.237228 
	C136.091980,77.224861 134.439377,78.212502 132.413422,79.303741 
	C130.938904,77.769745 129.837769,76.132141 128.868637,74.118088 
z"/>
<path fill="#B89980" opacity="1.000000" stroke="none" 
	d="
M182.189514,42.843292 
	C182.197205,42.663414 182.588760,42.780212 182.783020,42.842422 
	C182.848999,43.123062 182.720703,43.341492 182.592407,43.559921 
	C182.455536,43.381001 182.318680,43.202084 182.189514,42.843292 
z"/>
</svg>